<svg width="100%" height="150px" id="Hexels SVG Export" xmlns="http://www.w3.org/2000/svg" version="1.1">
<g id="Root" transform="matrix(1.000, 0.000, 0.000, 1.000, 0.000, 0.000)">
<g id="Layer 1" transform="matrix(1.000, 0.000, 0.000, 1.000, 0.000, 0.000)">
<g id="Hexels">
<path d="M 766.20,100.00 L 699.58,100.00 L 649.61,150.00 L 599.64,200.00 L 549.67,250.00 L 499.70,300.00 L 499.70,400.00 L 499.70,500.00 L 499.70,600.00 L 499.70,700.00 L 566.32,700.00 L 599.64,700.00 L 632.95,700.00 L 699.58,700.00 L 766.20,700.00 L 799.51,700.00 L 832.83,700.00 L 899.45,700.00 L 966.08,700.00 L 999.39,700.00 L 1032.71,700.00 L 1099.33,700.00 L 1165.96,700.00 L 1199.27,700.00 L 1232.58,700.00 L 1299.21,700.00 L 1299.21,600.00 L 1299.21,500.00 L 1299.21,400.00 L 1299.21,300.00 L 1249.24,250.00 L 1199.27,200.00 L 1149.30,150.00 L 1099.33,100.00 L 1032.71,100.00 L 999.39,100.00 L 999.39,200.00 L 999.39,300.00 L 999.39,400.00 L 999.39,500.00 L 999.39,600.00 L 932.77,600.00 L 899.45,600.00 L 866.14,600.00 L 799.51,600.00 L 799.51,500.00 L 799.51,400.00 L 799.51,300.00 L 799.51,200.00 L 799.51,100.00 L 766.20,100.00  z
" style="fill:#2a776f;fill-opacity:1.00"/>
<path d="M 799.51,100.00 L 799.51,200.00 L 849.48,150.00 L 899.45,100.00 L 832.83,100.00 L 799.51,100.00  z
" style="fill:#005959;fill-opacity:1.00"/>
<path d="M 899.45,100.00 L 949.42,150.00 L 999.39,200.00 L 999.39,100.00 L 966.08,100.00 L 899.45,100.00  z
" style="fill:#005959;fill-opacity:1.00"/>
<path d="M 849.48,150.00 L 799.51,200.00 L 849.48,250.00 L 899.45,300.00 L 949.42,250.00 L 999.39,200.00 L 949.42,150.00 L 899.45,100.00 L 849.48,150.00  z
" style="fill:#ffffff;fill-opacity:1.00"/>
<path d="M 799.51,200.00 L 799.51,300.00 L 799.51,400.00 L 849.48,350.00 L 899.45,300.00 L 849.48,250.00 L 799.51,200.00  z
" style="fill:#005959;fill-opacity:1.00"/>
<path d="M 949.42,250.00 L 899.45,300.00 L 949.42,350.00 L 999.39,400.00 L 999.39,300.00 L 999.39,200.00 L 949.42,250.00  z
" style="fill:#005959;fill-opacity:1.00"/>
<path d="M 99.94,300.00 L 149.91,350.00 L 199.88,400.00 L 266.50,400.00 L 299.82,400.00 L 333.13,400.00 L 399.76,400.00 L 449.73,450.00 L 499.70,500.00 L 499.70,400.00 L 499.70,300.00 L 433.07,300.00 L 399.76,300.00 L 366.44,300.00 L 299.82,300.00 L 233.19,300.00 L 199.88,300.00 L 166.57,300.00 L 99.94,300.00  z
" style="fill:#ffffff;fill-opacity:1.00"/>
<path d="M 1365.84,300.00 L 1299.21,300.00 L 1299.21,400.00 L 1299.21,500.00 L 1349.18,450.00 L 1399.15,400.00 L 1465.78,400.00 L 1499.09,400.00 L 1532.40,400.00 L 1599.03,400.00 L 1649.00,350.00 L 1698.97,300.00 L 1632.34,300.00 L 1599.03,300.00 L 1565.72,300.00 L 1499.09,300.00 L 1432.46,300.00 L 1399.15,300.00 L 1365.84,300.00  z
" style="fill:#ffffff;fill-opacity:1.00"/>
<path d="M 849.48,350.00 L 799.51,400.00 L 849.48,450.00 L 899.45,500.00 L 949.42,450.00 L 999.39,400.00 L 949.42,350.00 L 899.45,300.00 L 849.48,350.00  z
" style="fill:#ffffff;fill-opacity:1.00"/>
<path d="M 799.51,400.00 L 799.51,500.00 L 799.51,600.00 L 866.14,600.00 L 899.45,600.00 L 932.77,600.00 L 999.39,600.00 L 999.39,500.00 L 999.39,400.00 L 949.42,450.00 L 899.45,500.00 L 849.48,450.00 L 799.51,400.00  z
" style="fill:#005959;fill-opacity:1.00"/>
</g>
<g id="Outlines">
<polygon points="99.94, 300.00  77.23, 290.59, 166.57, 290.59,  166.57, 300.00" style="fill:#000000;fill-opacity:1.00"/>
<polygon points="149.91, 350.00  143.25, 356.65, 77.23, 290.59,  99.94, 300.00" style="fill:#000000;fill-opacity:1.00"/>
<polygon points="166.57, 300.00  166.57, 290.59, 199.88, 290.59,  199.88, 300.00" style="fill:#000000;fill-opacity:1.00"/>
<polygon points="199.88, 400.00  195.98, 409.41, 143.25, 356.65,  149.91, 350.00" style="fill:#000000;fill-opacity:1.00"/>
<polygon points="199.88, 300.00  199.88, 290.59, 233.19, 290.59,  233.19, 300.00" style="fill:#000000;fill-opacity:1.00"/>
<polygon points="266.50, 400.00  266.50, 409.41, 195.98, 409.41,  199.88, 400.00" style="fill:#000000;fill-opacity:1.00"/>
<polygon points="233.19, 300.00  233.19, 290.59, 299.82, 290.59,  299.82, 300.00" style="fill:#000000;fill-opacity:1.00"/>
<polygon points="299.82, 400.00  299.82, 409.41, 266.50, 409.41,  266.50, 400.00" style="fill:#000000;fill-opacity:1.00"/>
<polygon points="299.82, 300.00  299.82, 290.59, 366.44, 290.59,  366.44, 300.00" style="fill:#000000;fill-opacity:1.00"/>
<polygon points="333.13, 400.00  333.13, 409.41, 299.82, 409.41,  299.82, 400.00" style="fill:#000000;fill-opacity:1.00"/>
<polygon points="366.44, 300.00  366.44, 290.59, 399.76, 290.59,  399.76, 300.00" style="fill:#000000;fill-opacity:1.00"/>
<polygon points="399.76, 400.00  395.86, 409.41, 333.13, 409.41,  333.13, 400.00" style="fill:#000000;fill-opacity:1.00"/>
<polygon points="399.76, 300.00  399.76, 290.59, 433.07, 290.59,  433.07, 300.00" style="fill:#000000;fill-opacity:1.00"/>
<polygon points="449.73, 450.00  443.07, 456.65, 395.86, 409.41,  399.76, 400.00" style="fill:#000000;fill-opacity:1.00"/>
<polygon points="433.07, 300.00  433.07, 290.59, 495.80, 290.59,  499.70, 300.00" style="fill:#000000;fill-opacity:1.00"/>
<polygon points="499.70, 400.00  493.42, 400.00, 493.42, 300.00,  499.70, 300.00" style="fill:#040404;fill-opacity:0.51"/>
<polygon points="499.70, 500.00  493.42, 500.00, 493.42, 400.00,  499.70, 400.00" style="fill:#040404;fill-opacity:0.51"/>
<polygon points="499.70, 500.00  493.04, 506.65, 443.07, 456.65,  449.73, 450.00" style="fill:#000000;fill-opacity:1.00"/>
<polygon points="499.70, 600.00  490.28, 600.00, 490.28, 500.00,  499.70, 500.00" style="fill:#000000;fill-opacity:1.00"/>
<polygon points="499.70, 700.00  490.28, 709.41, 490.28, 600.00,  499.70, 600.00" style="fill:#000000;fill-opacity:1.00"/>
<polygon points="533.01, 600.00  533.01, 609.41, 499.70, 609.41,  499.70, 600.00" style="fill:#ffffff;fill-opacity:1.00"/>
<polygon points="499.70, 700.00  499.70, 690.59, 566.32, 690.59,  566.32, 700.00" style="fill:#ffffff;fill-opacity:1.00"/>
<polygon points="566.32, 700.00  566.32, 709.41, 490.28, 709.41,  499.70, 700.00" style="fill:#000000;fill-opacity:1.00"/>
<polygon points="499.70, 300.00  495.80, 290.59, 543.01, 243.35,  549.67, 250.00" style="fill:#000000;fill-opacity:1.00"/>
<polygon points="549.67, 250.00  543.01, 243.35, 592.98, 193.35,  599.64, 200.00" style="fill:#000000;fill-opacity:1.00"/>
<polygon points="599.64, 600.00  599.64, 609.41, 533.01, 609.41,  533.01, 600.00" style="fill:#ffffff;fill-opacity:1.00"/>
<polygon points="566.32, 700.00  566.32, 690.59, 599.64, 690.59,  599.64, 700.00" style="fill:#ffffff;fill-opacity:1.00"/>
<polygon points="599.64, 700.00  599.64, 709.41, 566.32, 709.41,  566.32, 700.00" style="fill:#000000;fill-opacity:1.00"/>
<polygon points="666.26, 600.00  666.26, 609.41, 599.64, 609.41,  599.64, 600.00" style="fill:#ffffff;fill-opacity:1.00"/>
<polygon points="599.64, 700.00  599.64, 690.59, 632.95, 690.59,  632.95, 700.00" style="fill:#ffffff;fill-opacity:1.00"/>
<polygon points="632.95, 700.00  632.95, 709.41, 599.64, 709.41,  599.64, 700.00" style="fill:#000000;fill-opacity:1.00"/>
<polygon points="599.64, 200.00  592.98, 193.35, 642.95, 143.35,  649.61, 150.00" style="fill:#000000;fill-opacity:1.00"/>
<polygon points="649.61, 150.00  642.95, 143.35, 695.67, 90.59,  699.58, 100.00" style="fill:#000000;fill-opacity:1.00"/>
<polygon points="699.58, 600.00  699.58, 609.41, 666.26, 609.41,  666.26, 600.00" style="fill:#ffffff;fill-opacity:1.00"/>
<polygon points="632.95, 700.00  632.95, 690.59, 699.58, 690.59,  699.58, 700.00" style="fill:#ffffff;fill-opacity:1.00"/>
<polygon points="699.58, 700.00  699.58, 709.41, 632.95, 709.41,  632.95, 700.00" style="fill:#000000;fill-opacity:1.00"/>
<polygon points="699.58, 100.00  695.67, 90.59, 766.20, 90.59,  766.20, 100.00" style="fill:#000000;fill-opacity:1.00"/>
<polygon points="732.89, 600.00  732.89, 609.41, 699.57, 609.41,  699.57, 600.00" style="fill:#ffffff;fill-opacity:1.00"/>
<polygon points="699.58, 700.00  699.58, 690.59, 766.20, 690.59,  766.20, 700.00" style="fill:#ffffff;fill-opacity:1.00"/>
<polygon points="766.20, 700.00  766.20, 709.41, 699.58, 709.41,  699.58, 700.00" style="fill:#000000;fill-opacity:1.00"/>
<polygon points="766.20, 100.00  766.20, 90.59, 799.51, 90.59,  799.51, 100.00" style="fill:#000000;fill-opacity:1.00"/>
<polygon points="799.51, 200.00  793.24, 200.00, 793.24, 100.00,  799.51, 100.00" style="fill:#040404;fill-opacity:0.51"/>
<polygon points="799.51, 300.00  793.24, 300.00, 793.24, 200.00,  799.51, 200.00" style="fill:#040404;fill-opacity:0.51"/>
<polygon points="799.51, 400.00  793.24, 400.00, 793.24, 300.00,  799.51, 300.00" style="fill:#040404;fill-opacity:0.51"/>
<polygon points="799.51, 500.00  793.24, 500.00, 793.24, 400.00,  799.51, 400.00" style="fill:#040404;fill-opacity:0.51"/>
<polygon points="799.51, 600.00  793.24, 600.00, 793.24, 500.00,  799.51, 500.00" style="fill:#040404;fill-opacity:0.51"/>
<polygon points="799.51, 600.00  799.51, 609.41, 732.89, 609.41,  732.89, 600.00" style="fill:#ffffff;fill-opacity:1.00"/>
<polygon points="766.20, 700.00  766.20, 690.59, 799.51, 690.59,  799.51, 700.00" style="fill:#ffffff;fill-opacity:1.00"/>
<polygon points="799.51, 700.00  799.51, 709.41, 766.20, 709.41,  766.20, 700.00" style="fill:#000000;fill-opacity:1.00"/>
<polygon points="799.51, 100.00  799.51, 90.59, 832.83, 90.59,  832.83, 100.00" style="fill:#000000;fill-opacity:1.00"/>
<polygon points="866.14, 600.00  866.14, 609.41, 799.51, 609.41,  799.51, 600.00" style="fill:#ffffff;fill-opacity:1.00"/>
<polygon points="799.51, 700.00  799.51, 690.59, 832.83, 690.59,  832.83, 700.00" style="fill:#ffffff;fill-opacity:1.00"/>
<polygon points="832.83, 700.00  832.83, 709.41, 799.51, 709.41,  799.51, 700.00" style="fill:#000000;fill-opacity:1.00"/>
<polygon points="832.83, 100.00  832.83, 90.59, 899.45, 90.59,  899.45, 100.00" style="fill:#000000;fill-opacity:1.00"/>
<polygon points="899.45, 600.00  899.45, 609.41, 866.14, 609.41,  866.14, 600.00" style="fill:#ffffff;fill-opacity:1.00"/>
<polygon points="832.83, 700.00  832.83, 690.59, 899.45, 690.59,  899.45, 700.00" style="fill:#ffffff;fill-opacity:1.00"/>
<polygon points="899.45, 700.00  899.45, 709.41, 832.83, 709.41,  832.83, 700.00" style="fill:#000000;fill-opacity:1.00"/>
<polygon points="899.45, 100.00  899.45, 90.59, 966.08, 90.59,  966.08, 100.00" style="fill:#000000;fill-opacity:1.00"/>
<polygon points="932.77, 600.00  932.77, 609.41, 899.45, 609.41,  899.45, 600.00" style="fill:#ffffff;fill-opacity:1.00"/>
<polygon points="899.45, 700.00  899.45, 690.59, 966.08, 690.59,  966.08, 700.00" style="fill:#ffffff;fill-opacity:1.00"/>
<polygon points="966.08, 700.00  966.08, 709.41, 899.45, 709.41,  899.45, 700.00" style="fill:#000000;fill-opacity:1.00"/>
<polygon points="966.08, 100.00  966.08, 90.59, 999.39, 90.59,  999.39, 100.00" style="fill:#000000;fill-opacity:1.00"/>
<polygon points="999.39, 600.00  999.39, 609.41, 932.77, 609.41,  932.77, 600.00" style="fill:#ffffff;fill-opacity:1.00"/>
<polygon points="966.08, 700.00  966.08, 690.59, 999.39, 690.59,  999.39, 700.00" style="fill:#ffffff;fill-opacity:1.00"/>
<polygon points="999.39, 700.00  999.39, 709.41, 966.08, 709.41,  966.08, 700.00" style="fill:#000000;fill-opacity:1.00"/>
<polygon points="999.39, 100.00  999.39, 90.59, 1032.71, 90.59,  1032.71, 100.00" style="fill:#000000;fill-opacity:1.00"/>
<polygon points="999.39, 100.00  1005.67, 100.00, 1005.67, 200.00,  999.39, 200.00" style="fill:#040404;fill-opacity:0.51"/>
<polygon points="999.39, 200.00  1005.67, 200.00, 1005.67, 300.00,  999.39, 300.00" style="fill:#040404;fill-opacity:0.51"/>
<polygon points="999.39, 300.00  1005.67, 300.00, 1005.67, 400.00,  999.39, 400.00" style="fill:#040404;fill-opacity:0.51"/>
<polygon points="999.39, 400.00  1005.67, 400.00, 1005.67, 500.00,  999.39, 500.00" style="fill:#040404;fill-opacity:0.51"/>
<polygon points="999.39, 500.00  1005.67, 500.00, 1005.67, 600.00,  999.39, 600.00" style="fill:#040404;fill-opacity:0.51"/>
<polygon points="1066.02, 600.00  1066.02, 609.41, 999.39, 609.41,  999.39, 600.00" style="fill:#ffffff;fill-opacity:1.00"/>
<polygon points="999.39, 700.00  999.39, 690.59, 1032.71, 690.59,  1032.71, 700.00" style="fill:#ffffff;fill-opacity:1.00"/>
<polygon points="1032.71, 700.00  1032.71, 709.41, 999.39, 709.41,  999.39, 700.00" style="fill:#000000;fill-opacity:1.00"/>
<polygon points="1032.71, 100.00  1032.71, 90.59, 1103.23, 90.59,  1099.33, 100.00" style="fill:#000000;fill-opacity:1.00"/>
<polygon points="1099.33, 600.00  1099.33, 609.41, 1066.02, 609.41,  1066.02, 600.00" style="fill:#ffffff;fill-opacity:1.00"/>
<polygon points="1032.71, 700.00  1032.71, 690.59, 1099.33, 690.59,  1099.33, 700.00" style="fill:#ffffff;fill-opacity:1.00"/>
<polygon points="1099.33, 700.00  1099.33, 709.41, 1032.71, 709.41,  1032.71, 700.00" style="fill:#000000;fill-opacity:1.00"/>
<polygon points="1099.33, 100.00  1103.23, 90.59, 1155.96, 143.35,  1149.30, 150.00" style="fill:#000000;fill-opacity:1.00"/>
<polygon points="1132.65, 600.00  1132.65, 609.41, 1099.33, 609.41,  1099.33, 600.00" style="fill:#ffffff;fill-opacity:1.00"/>
<polygon points="1099.33, 700.00  1099.33, 690.59, 1165.96, 690.59,  1165.96, 700.00" style="fill:#ffffff;fill-opacity:1.00"/>
<polygon points="1165.96, 700.00  1165.96, 709.41, 1099.33, 709.41,  1099.33, 700.00" style="fill:#000000;fill-opacity:1.00"/>
<polygon points="1149.30, 150.00  1155.96, 143.35, 1205.93, 193.35,  1199.27, 200.00" style="fill:#000000;fill-opacity:1.00"/>
<polygon points="1199.27, 600.00  1199.27, 609.41, 1132.65, 609.41,  1132.65, 600.00" style="fill:#ffffff;fill-opacity:1.00"/>
<polygon points="1165.96, 700.00  1165.96, 690.59, 1199.27, 690.59,  1199.27, 700.00" style="fill:#ffffff;fill-opacity:1.00"/>
<polygon points="1199.27, 700.00  1199.27, 709.41, 1165.96, 709.41,  1165.96, 700.00" style="fill:#000000;fill-opacity:1.00"/>
<polygon points="1199.27, 200.00  1205.93, 193.35, 1255.90, 243.35,  1249.24, 250.00" style="fill:#000000;fill-opacity:1.00"/>
<polygon points="1265.90, 600.00  1265.90, 609.41, 1199.27, 609.41,  1199.27, 600.00" style="fill:#ffffff;fill-opacity:1.00"/>
<polygon points="1199.27, 700.00  1199.27, 690.59, 1232.58, 690.59,  1232.58, 700.00" style="fill:#ffffff;fill-opacity:1.00"/>
<polygon points="1232.58, 700.00  1232.58, 709.41, 1199.27, 709.41,  1199.27, 700.00" style="fill:#000000;fill-opacity:1.00"/>
<polygon points="1249.24, 250.00  1255.90, 243.35, 1305.87, 293.35,  1299.21, 300.00" style="fill:#000000;fill-opacity:1.00"/>
<polygon points="1299.21, 600.00  1299.21, 609.41, 1265.90, 609.41,  1265.90, 600.00" style="fill:#ffffff;fill-opacity:1.00"/>
<polygon points="1232.58, 700.00  1232.58, 690.59, 1299.21, 690.59,  1299.21, 700.00" style="fill:#ffffff;fill-opacity:1.00"/>
<polygon points="1299.21, 700.00  1308.62, 709.41, 1232.58, 709.41,  1232.58, 700.00" style="fill:#000000;fill-opacity:1.00"/>
<polygon points="1299.21, 300.00  1299.21, 290.59, 1365.84, 290.59,  1365.84, 300.00" style="fill:#000000;fill-opacity:1.00"/>
<polygon points="1299.21, 300.00  1305.49, 300.00, 1305.49, 400.00,  1299.21, 400.00" style="fill:#040404;fill-opacity:0.51"/>
<polygon points="1299.21, 400.00  1305.49, 400.00, 1305.49, 500.00,  1299.21, 500.00" style="fill:#040404;fill-opacity:0.51"/>
<polygon points="1349.18, 450.00  1355.84, 456.65, 1308.62, 503.90,  1299.21, 500.00" style="fill:#000000;fill-opacity:1.00"/>
<polygon points="1299.21, 500.00  1308.62, 503.90, 1308.62, 600.00,  1299.21, 600.00" style="fill:#000000;fill-opacity:1.00"/>
<polygon points="1299.21, 600.00  1308.62, 600.00, 1308.62, 709.41,  1299.21, 700.00" style="fill:#000000;fill-opacity:1.00"/>
<polygon points="1399.15, 400.00  1403.05, 409.41, 1355.84, 456.65,  1349.18, 450.00" style="fill:#000000;fill-opacity:1.00"/>
<polygon points="1365.84, 300.00  1365.84, 290.59, 1399.15, 290.59,  1399.15, 300.00" style="fill:#000000;fill-opacity:1.00"/>
<polygon points="1399.15, 300.00  1399.15, 290.59, 1432.46, 290.59,  1432.46, 300.00" style="fill:#000000;fill-opacity:1.00"/>
<polygon points="1465.78, 400.00  1465.78, 409.41, 1403.05, 409.41,  1399.15, 400.00" style="fill:#000000;fill-opacity:1.00"/>
<polygon points="1432.46, 300.00  1432.46, 290.59, 1499.09, 290.59,  1499.09, 300.00" style="fill:#000000;fill-opacity:1.00"/>
<polygon points="1499.09, 400.00  1499.09, 409.41, 1465.78, 409.41,  1465.78, 400.00" style="fill:#000000;fill-opacity:1.00"/>
<polygon points="1499.09, 300.00  1499.09, 290.59, 1565.72, 290.59,  1565.72, 300.00" style="fill:#000000;fill-opacity:1.00"/>
<polygon points="1532.40, 400.00  1532.40, 409.41, 1499.09, 409.41,  1499.09, 400.00" style="fill:#000000;fill-opacity:1.00"/>
<polygon points="1565.72, 300.00  1565.72, 290.59, 1599.03, 290.59,  1599.03, 300.00" style="fill:#000000;fill-opacity:1.00"/>
<polygon points="1599.03, 400.00  1602.93, 409.41, 1532.40, 409.41,  1532.40, 400.00" style="fill:#000000;fill-opacity:1.00"/>
<polygon points="1599.03, 300.00  1599.03, 290.59, 1632.34, 290.59,  1632.34, 300.00" style="fill:#000000;fill-opacity:1.00"/>
<polygon points="1649.00, 350.00  1655.66, 356.65, 1602.93, 409.41,  1599.03, 400.00" style="fill:#000000;fill-opacity:1.00"/>
<polygon points="1698.97, 300.00  1721.68, 290.59, 1655.66, 356.65,  1649.00, 350.00" style="fill:#000000;fill-opacity:1.00"/>
<polygon points="1632.34, 300.00  1632.34, 290.59, 1721.68, 290.59,  1698.97, 300.00" style="fill:#000000;fill-opacity:1.00"/>
</g>
</g>
</g></svg>
